<svg xmlns="http://www.w3.org/2000/svg" width="50" height="50" viewBox="0 0 50 50" fill="none"><rect width="50" height="50" fill="#5373FD"></rect><path d="M23.368 7C27.048 7 29.976 7.752 32.152 9.256C34.328 10.728 35.416 12.936 35.416 15.88C35.416 18.056 34.872 19.88 33.784 21.352C32.728 22.792 31.272 23.88 29.416 24.616C27.592 25.32 25.496 25.672 23.128 25.672L22.024 21.928C24.936 21.928 27.512 22.328 29.752 23.128C32.024 23.928 33.816 25.08 35.128 26.584C36.44 28.056 37.096 29.832 37.096 31.912C37.096 33.832 36.744 35.464 36.04 36.808C35.368 38.12 34.44 39.192 33.256 40.024C32.104 40.824 30.792 41.416 29.32 41.8C27.848 42.152 26.328 42.328 24.76 42.328H13V7H23.368ZM24.184 21.448C25.56 21.448 26.568 21.032 27.208 20.2C27.88 19.368 28.216 18.424 28.216 17.368C28.216 16.152 27.8 15.24 26.968 14.632C26.168 14.024 25.08 13.72 23.704 13.72H19.96V21.448H24.184ZM24.424 35.848C25.448 35.848 26.376 35.72 27.208 35.464C28.04 35.176 28.696 34.744 29.176 34.168C29.656 33.56 29.896 32.808 29.896 31.912C29.896 30.888 29.608 30.12 29.032 29.608C28.456 29.064 27.704 28.696 26.776 28.504C25.88 28.28 24.936 28.168 23.944 28.168H19.96V35.848H24.424Z" fill="#F3F3F3"></path></svg>