<svg width="39" height="92" viewBox="0 0 39 92" fill="none" xmlns="http://www.w3.org/2000/svg">
<path d="M35.9187 13.3215V32.9997C35.9187 34.325 34.7698 35.3997 33.3532 35.3997H5.13364C3.71705 35.3997 2.56822 34.325 2.56822 32.9997C2.56822 14.3965 2.56654 17.8814 2.57383 13.3215H35.9187Z" fill="#D1E7FF"/>
<path d="M35.9187 13.3215V17.8664C35.9187 18.8499 35.076 19.6647 34.0246 19.6687C34.0129 19.6687 4.48275 19.6687 4.46143 19.6687C3.41041 19.6644 2.56823 18.8496 2.56823 17.8664C2.56823 16.5546 2.56726 17.4602 2.57384 13.3215H35.9187Z" fill="#B9DCFF"/>
<path d="M25.7372 24.6749V35.3998H12.7497V24.6749C12.7497 23.3496 13.8985 22.2749 15.3151 22.2749H23.1718C24.5884 22.2749 25.7372 23.3496 25.7372 24.6749Z" fill="#E8F3FF"/>
<path d="M37.8427 13.3215C37.8427 15.7228 35.7613 17.6715 33.1929 17.6715C30.6251 17.6715 28.5431 15.7237 28.5431 13.3215C28.5431 15.7237 26.4611 17.6715 23.8932 17.6715C21.3254 17.6715 19.2434 15.7237 19.2434 13.3215C19.2434 15.7237 17.1614 17.6715 14.5936 17.6715C12.0258 17.6715 9.94378 15.7237 9.94378 13.3215C9.93977 15.708 7.84014 17.6715 5.29396 17.6715C2.75091 17.6715 0.648153 15.7105 0.644144 13.3215C0.644144 9.54093 0.633081 9.77358 0.672203 9.60003C0.710685 9.4297 0.443961 10.0328 4.47784 1.32309C4.68147 0.884345 5.14405 0.600098 5.65473 0.600098H32.8321C33.3428 0.600098 33.8054 0.884345 34.009 1.32309C38.0458 10.0392 37.7761 9.42955 37.8146 9.60003C37.8537 9.7732 37.8427 9.5368 37.8427 13.3215Z" fill="#B9DCFF"/>
<path d="M37.8427 13.3215C37.8427 15.7227 35.7613 17.6714 33.1929 17.6714C30.6251 17.6714 28.5431 15.7237 28.5431 13.3215C28.5431 15.7237 26.4611 17.6714 23.8932 17.6714C21.3254 17.6714 19.2434 15.7237 19.2434 13.3215C19.2434 15.7237 17.1614 17.6714 14.5936 17.6714C12.0258 17.6714 9.94376 15.7237 9.94376 13.3215C9.93975 15.7079 7.84011 17.6714 5.29393 17.6714C2.75088 17.6714 0.648116 15.7104 0.644108 13.3215C0.637774 9.5203 0.638736 9.74837 0.672167 9.6001H37.8146C37.8537 9.77327 37.8427 9.53687 37.8427 13.3215Z" fill="#B9DCFF"/>
<path d="M32.4857 3.8062C24.3423 2.7577 16.1237 4.10253 9.47642 8.78839C8.7282 9.31586 7.81619 9.60011 6.87933 9.60011H0.672302C0.710784 9.42979 0.44406 10.0329 4.47794 1.3231C4.68157 0.884348 5.14415 0.600098 5.65483 0.600098H32.8322C33.3434 0.600098 33.8057 0.884048 34.009 1.3228L34.1877 1.70845C34.6884 2.78943 33.7333 3.96685 32.4857 3.8062Z" fill="white"/>
<path d="M36.56 20.325V33C36.56 34.6542 35.1214 36 33.3532 36H5.13362C3.3654 36 1.92684 34.6542 1.92684 33V20.325C1.92684 19.9937 2.21401 19.725 2.5682 19.725C2.92238 19.725 3.20955 19.9937 3.20955 20.325V33C3.20955 33.9925 4.07265 34.8 5.13362 34.8H12.1083V24.675C12.1083 23.0208 13.5469 21.675 15.3151 21.675H23.1717C24.9399 21.675 26.3785 23.0208 26.3785 24.675V32.4C26.3785 32.7313 26.0913 33 25.7371 33C25.3829 33 25.0958 32.7313 25.0958 32.4V24.675C25.0958 23.6825 24.2326 22.875 23.1717 22.875H15.3151C14.2542 22.875 13.3911 23.6825 13.3911 24.675V34.8H18.6021V25.35C18.6021 25.0187 18.8892 24.75 19.2434 24.75C19.5976 24.75 19.8848 25.0187 19.8848 25.35V34.8H33.3532C34.4141 34.8 35.2773 33.9925 35.2773 33V20.325C35.2773 19.9937 35.5644 19.725 35.9186 19.725C36.2728 19.725 36.56 19.9936 36.56 20.325ZM4.17158 9.6C4.17158 9.93135 4.45875 10.2 4.81294 10.2C39.7081 10.2 37.9779 10.2584 38.2329 10.0754C38.3661 9.9795 38.4533 9.84112 38.4772 9.68303C38.5129 9.4419 38.7431 10.0349 34.2623 0.361425C34.1606 0.141975 33.9295 0 33.6738 0H4.81286C4.55728 0 4.32599 0.14205 4.22441 0.361425L0.0556098 9.36143C-0.0180658 9.52058 0.00269808 9.26798 0.00269808 13.3224C0.0073479 16.0513 2.38092 18.2714 5.29387 18.2714C7.29642 18.2714 9.04403 17.2222 9.94233 15.6797C11.9486 19.129 17.2333 19.1328 19.2433 15.682C21.2517 19.13 26.5341 19.1308 28.543 15.682C29.4406 17.2232 31.1884 18.2714 33.1928 18.2714C36.1104 18.2714 38.484 16.0509 38.484 13.3214C38.484 12.9901 38.1968 12.7214 37.8426 12.7214C37.4884 12.7214 37.2013 12.9901 37.2013 13.3214C37.2013 15.3892 35.4031 17.0714 33.1928 17.0714C30.9825 17.0714 29.1843 15.3892 29.1843 13.3214C29.1843 12.9901 28.8972 12.7214 28.543 12.7214C28.1888 12.7214 27.9016 12.9901 27.9016 13.3214C27.9016 15.3892 26.1034 17.0714 23.8932 17.0714C21.6829 17.0714 19.8847 15.3892 19.8847 13.3214C19.8847 12.9901 19.5975 12.7214 19.2433 12.7214C18.8891 12.7214 18.602 12.9901 18.602 13.3214C18.602 15.3892 16.8038 17.0714 14.5935 17.0714C12.4324 17.0714 10.585 15.4466 10.585 13.2914C10.585 12.9601 10.2979 12.6914 9.94369 12.6914C9.58951 12.6914 9.30234 12.9601 9.30234 13.2914C9.30234 15.4284 7.46654 17.0714 5.29387 17.0714C3.08713 17.0714 1.28885 15.3887 1.28541 13.3214V9.72435L5.23399 1.2H33.2528L36.8658 9H4.81294C4.45867 9 4.17158 9.26858 4.17158 9.6Z" fill="#007FFC"/>
<path d="M35.9187 69.3215V88.9997C35.9187 90.325 34.7698 91.3997 33.3532 91.3997H5.13364C3.71705 91.3997 2.56822 90.325 2.56822 88.9997C2.56822 70.3965 2.56654 73.8814 2.57383 69.3215H35.9187Z" fill="#E1F4F5"/>
<path d="M35.9187 69.3215V73.8664C35.9187 74.8499 35.076 75.6647 34.0246 75.6687C34.0129 75.6687 4.48275 75.6687 4.46143 75.6687C3.41041 75.6644 2.56823 74.8496 2.56823 73.8664C2.56823 72.5546 2.56726 73.4602 2.57384 69.3215H35.9187Z" fill="#CAEFF2"/>
<path d="M25.7372 80.6749V91.3998H12.7497V80.6749C12.7497 79.3496 13.8985 78.2749 15.3151 78.2749H23.1718C24.5884 78.2749 25.7372 79.3496 25.7372 80.6749Z" fill="#F4FEFF"/>
<path d="M37.8427 69.3215C37.8427 71.7228 35.7613 73.6715 33.1929 73.6715C30.6251 73.6715 28.5431 71.7237 28.5431 69.3215C28.5431 71.7237 26.4611 73.6715 23.8932 73.6715C21.3254 73.6715 19.2434 71.7237 19.2434 69.3215C19.2434 71.7237 17.1614 73.6715 14.5936 73.6715C12.0258 73.6715 9.94378 71.7237 9.94378 69.3215C9.93977 71.708 7.84014 73.6715 5.29396 73.6715C2.75091 73.6715 0.648153 71.7105 0.644144 69.3215C0.644144 65.5409 0.633081 65.7736 0.672203 65.6C0.710685 65.4297 0.443961 66.0328 4.47784 57.3231C4.68147 56.8843 5.14405 56.6001 5.65473 56.6001H32.8321C33.3428 56.6001 33.8054 56.8843 34.009 57.3231C38.0458 66.0392 37.7761 65.4296 37.8146 65.6C37.8537 65.7732 37.8427 65.5368 37.8427 69.3215Z" fill="#CAEFF2"/>
<path d="M37.8427 69.3215C37.8427 71.7227 35.7613 73.6714 33.1929 73.6714C30.6251 73.6714 28.5431 71.7237 28.5431 69.3215C28.5431 71.7237 26.4611 73.6714 23.8932 73.6714C21.3254 73.6714 19.2434 71.7237 19.2434 69.3215C19.2434 71.7237 17.1614 73.6714 14.5936 73.6714C12.0258 73.6714 9.94376 71.7237 9.94376 69.3215C9.93975 71.7079 7.84011 73.6714 5.29393 73.6714C2.75088 73.6714 0.648116 71.7104 0.644108 69.3215C0.637774 65.5203 0.638736 65.7484 0.672167 65.6001H37.8146C37.8537 65.7733 37.8427 65.5369 37.8427 69.3215Z" fill="#CAEFF2"/>
<path d="M32.4857 59.8062C24.3423 58.7577 16.1237 60.1025 9.47642 64.7884C8.7282 65.3159 7.81619 65.6001 6.87933 65.6001H0.672302C0.710784 65.4298 0.44406 66.0329 4.47794 57.3231C4.68157 56.8843 5.14415 56.6001 5.65483 56.6001H32.8322C33.3434 56.6001 33.8057 56.884 34.009 57.3228L34.1877 57.7084C34.6884 58.7894 33.7333 59.9669 32.4857 59.8062Z" fill="white"/>
<path d="M36.56 76.325V89C36.56 90.6542 35.1214 92 33.3532 92H5.13362C3.3654 92 1.92684 90.6542 1.92684 89V76.325C1.92684 75.9937 2.21401 75.725 2.5682 75.725C2.92238 75.725 3.20955 75.9937 3.20955 76.325V89C3.20955 89.9925 4.07265 90.8 5.13362 90.8H12.1083V80.675C12.1083 79.0208 13.5469 77.675 15.3151 77.675H23.1717C24.9399 77.675 26.3785 79.0208 26.3785 80.675V88.4C26.3785 88.7313 26.0913 89 25.7371 89C25.3829 89 25.0958 88.7313 25.0958 88.4V80.675C25.0958 79.6825 24.2326 78.875 23.1717 78.875H15.3151C14.2542 78.875 13.3911 79.6825 13.3911 80.675V90.8H18.6021V81.35C18.6021 81.0187 18.8892 80.75 19.2434 80.75C19.5976 80.75 19.8848 81.0187 19.8848 81.35V90.8H33.3532C34.4141 90.8 35.2773 89.9925 35.2773 89V76.325C35.2773 75.9937 35.5644 75.725 35.9186 75.725C36.2728 75.725 36.56 75.9936 36.56 76.325ZM4.17158 65.6C4.17158 65.9314 4.45875 66.2 4.81294 66.2C39.7081 66.2 37.9779 66.2584 38.2329 66.0754C38.3661 65.9795 38.4533 65.8411 38.4772 65.683C38.5129 65.4419 38.7431 66.0349 34.2623 56.3614C34.1606 56.142 33.9295 56 33.6738 56H4.81286C4.55728 56 4.32599 56.142 4.22441 56.3614L0.0556098 65.3614C-0.0180658 65.5206 0.00269808 65.268 0.00269808 69.3224C0.0073479 72.0513 2.38092 74.2714 5.29387 74.2714C7.29642 74.2714 9.04403 73.2222 9.94233 71.6797C11.9486 75.129 17.2333 75.1328 19.2433 71.682C21.2517 75.13 26.5341 75.1308 28.543 71.682C29.4406 73.2232 31.1884 74.2714 33.1928 74.2714C36.1104 74.2714 38.484 72.0509 38.484 69.3214C38.484 68.9901 38.1968 68.7214 37.8426 68.7214C37.4884 68.7214 37.2013 68.9901 37.2013 69.3214C37.2013 71.3892 35.4031 73.0714 33.1928 73.0714C30.9825 73.0714 29.1843 71.3892 29.1843 69.3214C29.1843 68.9901 28.8972 68.7214 28.543 68.7214C28.1888 68.7214 27.9016 68.9901 27.9016 69.3214C27.9016 71.3892 26.1034 73.0714 23.8932 73.0714C21.6829 73.0714 19.8847 71.3892 19.8847 69.3214C19.8847 68.9901 19.5975 68.7214 19.2433 68.7214C18.8891 68.7214 18.602 68.9901 18.602 69.3214C18.602 71.3892 16.8038 73.0714 14.5935 73.0714C12.4324 73.0714 10.585 71.4466 10.585 69.2914C10.585 68.9601 10.2979 68.6914 9.94369 68.6914C9.58951 68.6914 9.30234 68.9601 9.30234 69.2914C9.30234 71.4284 7.46654 73.0714 5.29387 73.0714C3.08713 73.0714 1.28885 71.3887 1.28541 69.3214V65.7244L5.23399 57.2H33.2528L36.8658 65H4.81294C4.45867 65 4.17158 65.2686 4.17158 65.6Z" fill="#52C29D"/>
</svg>
