<svg width="25" height="92" viewBox="0 0 25 92" fill="none" xmlns="http://www.w3.org/2000/svg">
<path d="M20.8442 0.600098C22.2608 0.600098 23.4097 1.67485 23.4097 3.0001V33.0001C23.4097 34.3254 22.2608 35.4001 20.8442 35.4001H3.20685C1.79025 35.4001 0.641418 34.3254 0.641418 33.0001V3.0001C0.641418 1.67485 1.79025 0.600098 3.20685 0.600098H20.8442Z" fill="#D1E7FF"/>
<path d="M16.0596 13.479C16.6737 13.479 17.1884 13.9118 17.2549 14.4825L18.1127 21.8535C18.1905 22.5188 17.6333 23.1 16.9174 23.1H7.13349C6.41758 23.1 5.8604 22.5188 5.93816 21.8535L6.79598 14.4825C6.86252 13.9118 7.37721 13.479 7.99131 13.479H16.0596Z" fill="#B9DCFF"/>
<path d="M20.9655 0.602744C23.0287 0.692519 22.9192 3.60012 20.8538 3.60012H12.5066C7.72468 3.60012 3.84822 7.22659 3.84822 11.7001V35.4001H3.20686C1.79001 35.4001 0.641418 34.3256 0.641418 33.0001V3.00012C0.641418 1.67464 1.79001 0.600119 3.20686 0.600119C3.32295 0.600119 20.8714 0.598619 20.9655 0.602744Z" fill="#E8F3FF"/>
<path d="M23.4097 30.1501V33.0001C23.4097 34.3254 22.2608 35.4001 20.8442 35.4001H3.20685C1.79025 35.4001 0.641418 34.3254 0.641418 33.0001V30.1501H23.4097Z" fill="#B9DCFF"/>
<path d="M3.8482 30.1501V33.009C3.8482 34.9636 0.641418 35.0635 0.641418 33.0001V30.1501H3.8482Z" fill="#D1E7FF"/>
<path d="M16.0598 15.729C12.175 15.729 8.99954 18.4649 8.58955 21.9895C8.51604 22.6214 7.94563 23.1 7.26618 23.1H7.1335C6.41758 23.1 5.8604 22.5188 5.93816 21.8535L6.79599 14.4825C6.86253 13.9118 7.37722 13.479 7.99132 13.479H16.0597C16.6733 13.479 17.1885 13.9113 17.2549 14.4821C17.3326 15.149 16.7744 15.729 16.0598 15.729Z" fill="#D1E7FF"/>
<path d="M20.8441 0H3.20679C1.43857 0 0 1.3458 0 3V33C0 34.6542 1.43857 36 3.20679 36H20.8441C22.6124 36 24.0509 34.6542 24.0509 33V3C24.0509 1.3458 22.6124 0 20.8441 0ZM20.8441 34.8H3.20679C2.1459 34.8 1.28272 33.9925 1.28272 33V3C1.28272 2.00745 2.1459 1.2 3.20679 1.2H20.8441C21.905 1.2 22.7682 2.00745 22.7682 3V29.55H4.40934C4.05515 29.55 3.76798 29.8187 3.76798 30.15C3.76798 30.4814 4.05515 30.75 4.40934 30.75H22.7682V33C22.7682 33.9925 21.905 34.8 20.8441 34.8ZM13.4685 32.625C13.4685 32.9564 13.1814 33.225 12.8272 33.225H11.2238C10.8696 33.225 10.5824 32.9564 10.5824 32.625C10.5824 32.2937 10.8696 32.025 11.2238 32.025H12.8272C13.1814 32.025 13.4685 32.2937 13.4685 32.625ZM7.13351 23.7H16.9174C18.0143 23.7 18.8692 22.8079 18.7505 21.7883L17.8928 14.4176C17.7907 13.5407 17.0026 12.8794 16.0597 12.8794H15.466V11.7686C15.4659 9.99383 13.9225 8.55 12.0255 8.55C10.1284 8.55 8.58506 9.99383 8.58506 11.7686V12.8793H7.99132C7.04837 12.8793 6.26038 13.5406 6.15824 14.4176L5.30051 21.7883C5.18177 22.8084 6.03727 23.7 7.13351 23.7ZM6.57561 21.9182L7.43334 14.5475C7.46445 14.2806 7.70424 14.0793 7.99124 14.0793H8.58498V15.0155C8.58498 15.3469 8.87215 15.6155 9.22634 15.6155C9.58053 15.6155 9.8677 15.3469 9.8677 15.0155V11.7686C9.8677 10.6556 10.8356 9.75 12.0254 9.75C13.2152 9.75 14.1831 10.6555 14.1831 11.7686V12.8794H11.4089C11.0547 12.8794 10.7675 13.148 10.7675 13.4794C10.7675 13.8107 11.0547 14.0794 11.4089 14.0794H14.1831V15.0155C14.1831 15.3469 14.4702 15.6155 14.8244 15.6155C15.1786 15.6155 15.4658 15.3469 15.4658 15.0155V14.0794H16.0595C16.3465 14.0794 16.5863 14.2807 16.6174 14.5475L17.4752 21.9182C17.5112 22.2284 17.2529 22.5 16.9173 22.5H7.13351C6.79936 22.5 6.53945 22.2296 6.57561 21.9182Z" fill="#007FFC"/>
<path d="M20.8442 56.6001C22.2608 56.6001 23.4097 57.6748 23.4097 59.0001V89.0001C23.4097 90.3254 22.2608 91.4001 20.8442 91.4001H3.20685C1.79025 91.4001 0.641418 90.3254 0.641418 89.0001V59.0001C0.641418 57.6748 1.79025 56.6001 3.20685 56.6001H20.8442Z" fill="#E1F4F5"/>
<path d="M16.0596 69.479C16.6737 69.479 17.1884 69.9118 17.2549 70.4825L18.1127 77.8535C18.1905 78.5188 17.6333 79.1 16.9174 79.1H7.13349C6.41758 79.1 5.8604 78.5188 5.93816 77.8535L6.79598 70.4825C6.86252 69.9118 7.37721 69.479 7.99131 69.479H16.0596Z" fill="#CAEFF2"/>
<path d="M20.9655 56.6027C23.0287 56.6925 22.9192 59.6001 20.8538 59.6001H12.5066C7.72468 59.6001 3.84822 63.2266 3.84822 67.7001V91.4001H3.20686C1.79001 91.4001 0.641418 90.3256 0.641418 89.0001V59.0001C0.641418 57.6746 1.79001 56.6001 3.20686 56.6001C3.32295 56.6001 20.8714 56.5986 20.9655 56.6027Z" fill="#F4FEFF"/>
<path d="M23.4097 86.1501V89.0001C23.4097 90.3254 22.2608 91.4001 20.8442 91.4001H3.20685C1.79025 91.4001 0.641418 90.3254 0.641418 89.0001V86.1501H23.4097Z" fill="#CAEFF2"/>
<path d="M3.8482 86.1501V89.009C3.8482 90.9636 0.641418 91.0635 0.641418 89.0001V86.1501H3.8482Z" fill="#E1F4F5"/>
<path d="M16.0598 71.729C12.175 71.729 8.99954 74.4649 8.58955 77.9895C8.51604 78.6214 7.94563 79.1 7.26618 79.1H7.1335C6.41758 79.1 5.8604 78.5188 5.93816 77.8535L6.79599 70.4825C6.86253 69.9118 7.37722 69.479 7.99132 69.479H16.0597C16.6733 69.479 17.1885 69.9113 17.2549 70.4821C17.3326 71.149 16.7744 71.729 16.0598 71.729Z" fill="#E1F4F5"/>
<path d="M20.8441 56H3.20679C1.43857 56 0 57.3458 0 59V89C0 90.6542 1.43857 92 3.20679 92H20.8441C22.6124 92 24.0509 90.6542 24.0509 89V59C24.0509 57.3458 22.6124 56 20.8441 56ZM20.8441 90.8H3.20679C2.1459 90.8 1.28272 89.9925 1.28272 89V59C1.28272 58.0075 2.1459 57.2 3.20679 57.2H20.8441C21.905 57.2 22.7682 58.0075 22.7682 59V85.55H4.40934C4.05515 85.55 3.76798 85.8187 3.76798 86.15C3.76798 86.4814 4.05515 86.75 4.40934 86.75H22.7682V89C22.7682 89.9925 21.905 90.8 20.8441 90.8ZM13.4685 88.625C13.4685 88.9564 13.1814 89.225 12.8272 89.225H11.2238C10.8696 89.225 10.5824 88.9564 10.5824 88.625C10.5824 88.2937 10.8696 88.025 11.2238 88.025H12.8272C13.1814 88.025 13.4685 88.2937 13.4685 88.625ZM7.13351 79.7H16.9174C18.0143 79.7 18.8692 78.8079 18.7505 77.7883L17.8928 70.4176C17.7907 69.5407 17.0026 68.8794 16.0597 68.8794H15.466V67.7686C15.4659 65.9938 13.9225 64.55 12.0255 64.55C10.1284 64.55 8.58506 65.9938 8.58506 67.7686V68.8793H7.99132C7.04837 68.8793 6.26038 69.5406 6.15824 70.4176L5.30051 77.7883C5.18177 78.8084 6.03727 79.7 7.13351 79.7ZM6.57561 77.9182L7.43334 70.5475C7.46445 70.2806 7.70424 70.0793 7.99124 70.0793H8.58498V71.0155C8.58498 71.3469 8.87215 71.6155 9.22634 71.6155C9.58053 71.6155 9.8677 71.3469 9.8677 71.0155V67.7686C9.8677 66.6556 10.8356 65.75 12.0254 65.75C13.2152 65.75 14.1831 66.6555 14.1831 67.7686V68.8794H11.4089C11.0547 68.8794 10.7675 69.148 10.7675 69.4794C10.7675 69.8107 11.0547 70.0794 11.4089 70.0794H14.1831V71.0155C14.1831 71.3469 14.4702 71.6155 14.8244 71.6155C15.1786 71.6155 15.4658 71.3469 15.4658 71.0155V70.0794H16.0595C16.3465 70.0794 16.5863 70.2807 16.6174 70.5475L17.4752 77.9182C17.5112 78.2284 17.2529 78.5 16.9173 78.5H7.13351C6.79936 78.5 6.53945 78.2296 6.57561 77.9182Z" fill="#52C29D"/>
</svg>
