<svg width="325" height="37" viewBox="0 0 325 37" fill="none" xmlns="http://www.w3.org/2000/svg">
<path d="M15 11.4592C13.6075 11.4592 12.2462 11.8721 11.0883 12.6458C9.93048 13.4194 9.02804 14.5191 8.49513 15.8056C7.96223 17.0921 7.8228 18.5078 8.09447 19.8736C8.36614 21.2394 9.03672 22.4939 10.0214 23.4786C11.0061 24.4633 12.2606 25.1339 13.6264 25.4055C14.9922 25.6772 16.4079 25.5378 17.6944 25.0049C18.9809 24.472 20.0806 23.5695 20.8542 22.4117C21.6279 21.2538 22.0408 19.8925 22.0408 18.5C22.0408 16.6327 21.299 14.8418 19.9786 13.5214C18.6582 12.201 16.8673 11.4592 15 11.4592ZM15 23.7041C13.9707 23.7041 12.9646 23.3989 12.1088 22.827C11.253 22.2552 10.5859 21.4424 10.1921 20.4915C9.79817 19.5406 9.69511 18.4942 9.89591 17.4847C10.0967 16.4752 10.5924 15.548 11.3202 14.8202C12.048 14.0924 12.9752 13.5967 13.9847 13.3959C14.9942 13.1951 16.0406 13.2982 16.9915 13.6921C17.9424 14.0859 18.7552 14.753 19.327 15.6088C19.8989 16.4646 20.2041 17.4707 20.2041 18.5C20.2 19.879 19.6505 21.2003 18.6754 22.1754C17.7003 23.1505 16.379 23.7 15 23.7041ZM21.7347 3.5H8.26531C6.07321 3.5 3.9709 4.37081 2.42085 5.92085C0.870807 7.4709 0 9.57321 0 11.7653V25.2347C0 27.4268 0.870807 29.5291 2.42085 31.0791C3.9709 32.6292 6.07321 33.5 8.26531 33.5H21.7347C23.9268 33.5 26.0291 32.6292 27.5791 31.0791C29.1292 29.5291 30 27.4268 30 25.2347V11.7653C30 9.57321 29.1292 7.4709 27.5791 5.92085C26.0291 4.37081 23.9268 3.5 21.7347 3.5ZM28.1633 25.2347C28.1633 26.9397 27.486 28.5748 26.2804 29.7804C25.0748 30.986 23.4397 31.6633 21.7347 31.6633H8.26531C6.56034 31.6633 4.92521 30.986 3.71962 29.7804C2.51403 28.5748 1.83673 26.9397 1.83673 25.2347V11.7653C1.83673 10.0603 2.51403 8.42521 3.71962 7.21962C4.92521 6.01403 6.56034 5.33673 8.26531 5.33673H21.7347C23.4397 5.33673 25.0748 6.01403 26.2804 7.21962C27.486 8.42521 28.1633 10.0603 28.1633 11.7653V25.2347ZM24.4898 10.5408C24.4898 10.8435 24.4 11.1395 24.2318 11.3912C24.0637 11.6429 23.8246 11.8391 23.5449 11.9549C23.2652 12.0708 22.9575 12.1011 22.6606 12.042C22.3637 11.983 22.0909 11.8372 21.8769 11.6231C21.6628 11.4091 21.517 11.1363 21.458 10.8394C21.3989 10.5425 21.4292 10.2348 21.5451 9.95508C21.6609 9.67539 21.8571 9.43634 22.1088 9.26816C22.3605 9.09997 22.6565 9.0102 22.9592 9.0102C23.3651 9.0102 23.7544 9.17146 24.0415 9.45851C24.3285 9.74556 24.4898 10.1349 24.4898 10.5408Z" fill="#F16A50"/>
<path d="M68.8292 33.5V19.4231H65V14.3548H68.8292V10.0257C68.8292 6.62396 71.091 3.5 76.3029 3.5C78.4131 3.5 79.9736 3.69665 79.9736 3.69665L79.8506 8.42963C79.8506 8.42963 78.2592 8.41457 76.5227 8.41457C74.6432 8.41457 74.3421 9.25652 74.3421 10.6539V14.3548H80L79.7538 19.4231H74.3421V33.5H68.8292Z" fill="#F16A50"/>
<path d="M142.219 3.5C136.073 3.5 130 7.61108 130 14.2648C130 18.4961 132.372 20.9002 133.81 20.9002C134.403 20.9002 134.744 19.2414 134.744 18.773C134.744 18.2143 133.325 17.0238 133.325 14.6975C133.325 9.86521 136.99 6.43882 141.734 6.43882C145.813 6.43882 148.832 8.76507 148.832 13.0387C148.832 16.2304 147.556 22.2167 143.423 22.2167C141.932 22.2167 140.655 21.1349 140.655 19.5847C140.655 17.3123 142.237 15.113 142.237 12.7685C142.237 8.79008 136.612 9.51132 136.612 14.3196C136.612 15.3293 136.737 16.4468 137.187 17.3671C136.36 20.9377 134.671 26.2567 134.671 29.935C134.671 31.0707 134.833 32.1891 134.94 33.3248C135.144 33.5537 135.042 33.5297 135.353 33.4152C138.372 29.2676 138.265 28.4569 139.631 23.0293C140.368 24.4362 142.272 25.1931 143.781 25.1931C150.142 25.1931 153 18.9721 153 13.3647C153 7.39663 147.86 3.50192 142.218 3.50192L142.219 3.5Z" fill="#F16A50"/>
<path d="M231 3.51681C231 3.51681 227.698 5.50971 225.862 6.07482C224.876 4.91704 223.567 4.09645 222.11 3.724C220.653 3.35156 219.119 3.44525 217.716 3.99239C216.313 4.53953 215.108 5.51373 214.265 6.78323C213.421 8.05272 212.98 9.55627 213 11.0905V12.7624C210.124 12.8386 207.275 12.187 204.705 10.8655C202.136 9.54414 199.926 7.59396 198.273 5.18871C198.273 5.18871 191.727 20.2358 206.455 26.9234C203.085 29.2606 199.07 30.4326 195 30.2672C209.727 38.6267 227.727 30.2672 227.727 11.0404C227.727 10.5756 227.681 10.1108 227.596 9.65268C229.265 7.97075 231 3.51681 231 3.51681Z" stroke="#F16A50" stroke-width="2" stroke-linecap="round" stroke-linejoin="round"/>
<path d="M299.112 8.19136C298.884 7.28269 298.438 6.4542 297.818 5.78882C297.198 5.12343 296.426 4.6445 295.579 4.39994C293.265 3.44055 270.847 2.97052 264.343 4.42677C263.496 4.67142 262.724 5.15052 262.104 5.8161C261.484 6.48169 261.038 7.3104 260.81 8.21926C259.765 13.1375 259.686 23.7702 260.836 28.7989C261.064 29.7076 261.51 30.5361 262.13 31.2015C262.75 31.8668 263.522 32.3458 264.369 32.5903C268.952 33.7225 290.74 33.8813 295.605 32.5903C296.452 32.3458 297.224 31.8668 297.844 31.2015C298.464 30.5361 298.91 29.7076 299.138 28.7989C300.252 23.4407 300.331 13.4669 299.112 8.19136V8.19136Z" stroke="#F16A50" stroke-width="2" stroke-linecap="round" stroke-linejoin="round"/>
<path d="M286 19L276 12.5V25.5L286 19Z" stroke="#F16A50" stroke-width="2" stroke-linecap="round" stroke-linejoin="round"/>
</svg>
